<svg width="366.63" height="154.76" version="1.0" xmlns="http://www.w3.org/2000/svg">
  <defs>
    <clipPath id="prefix__a">
      <path d="M166.2 112.11h42.605v50.352H166.2z" />
    </clipPath>
  </defs>
  <path
    d="M55.562 74.092c5.082 1.762 9.258 4.652 12.531 8.672 3.281 4.012 4.922 9.25 4.922 15.719 0 10.262-2.98 17.586-8.938 21.969-5.949 4.387-13.219 6.578-21.812 6.578H6.656c-1.855 0-3.43-.645-4.718-1.938C.645 123.803 0 122.23 0 120.374V36.686c0-1.844.645-3.41 1.938-4.703 1.289-1.301 2.863-1.954 4.718-1.954h35.61c8.406 0 14.8 2.086 19.187 6.25 4.383 4.157 6.578 10.156 6.578 18 0 4.438-1.062 8.391-3.187 11.86-2.125 3.46-5.219 6.109-9.281 7.953zm-1.797-17.734c0-4.332-1.18-7.629-3.531-9.89-2.356-2.27-5.656-3.407-9.906-3.407H14.14v27.016h26.453c3.789-.094 6.93-1.316 9.422-3.672 2.5-2.351 3.75-5.703 3.75-10.047zm-11.64 57.922c5.081 0 9.144-1.313 12.187-3.938 3.05-2.632 4.578-6.585 4.578-11.859 0-10.25-5.82-15.375-17.453-15.375H14.14v31.172z"
    fill="#facd3d" />
  <g fill="#2cccc3">
    <path
      d="M153.241 115.53c1.383 1.48 2.078 3.094 2.078 4.844 0 1.855-.719 3.406-2.156 4.656-1.43 1.242-2.93 1.86-4.5 1.86-2.031 0-3.649-.739-4.844-2.22l-27.297-28.952-8.312 7.484v17.172c0 1.855-.625 3.43-1.875 4.719-1.243 1.293-2.79 1.937-4.641 1.937-1.938 0-3.531-.644-4.781-1.937-1.242-1.29-1.86-2.864-1.86-4.719V31.14c0-1.844.618-3.41 1.86-4.703 1.25-1.29 2.844-1.938 4.781-1.938 1.852 0 3.398.649 4.64 1.938 1.25 1.293 1.876 2.86 1.876 4.703v56.266l33.953-31.188c1.562-1.383 3.175-2.078 4.843-2.078 1.57 0 3.004.672 4.297 2.015 1.29 1.344 1.938 2.75 1.938 4.22 0 1.855-.875 3.523-2.625 5l-23.984 21.327zM188.445 120.374c0 1.855-.625 3.43-1.875 4.719-1.25 1.293-2.844 1.937-4.781 1.937-1.844 0-3.39-.644-4.64-1.937-1.25-1.29-1.876-2.864-1.876-4.72v-60c0-1.843.625-3.41 1.875-4.702 1.25-1.29 2.797-1.938 4.64-1.938 1.938 0 3.532.649 4.782 1.938 1.25 1.293 1.875 2.86 1.875 4.703zm-6.656-75.781c-2.68 0-4.594-.485-5.75-1.453-1.156-.977-1.735-2.532-1.735-4.657v-2.218c0-2.207.618-3.774 1.86-4.703 1.25-.926 3.172-1.391 5.765-1.391 2.582 0 4.454.484 5.61 1.453s1.734 2.516 1.734 4.64v2.22c0 2.218-.605 3.792-1.812 4.718-1.2.93-3.09 1.39-5.672 1.39zM249.541 52.764c16.633 0 24.953 9.977 24.953 29.922v37.688c0 1.855-.625 3.43-1.875 4.719-1.25 1.293-2.844 1.937-4.781 1.937-1.844 0-3.39-.644-4.64-1.937-1.25-1.29-1.876-2.864-1.876-4.719V82.827c0-5.445-1.25-9.785-3.75-13.016-2.492-3.238-6.554-4.86-12.188-4.86-3.687 0-7.039.813-10.047 2.438-3 1.617-5.355 3.79-7.062 6.516-1.711 2.718-2.563 5.695-2.563 8.922v37.547c0 1.855-.625 3.43-1.875 4.718-1.242 1.293-2.836 1.938-4.781 1.938-1.938 0-3.508-.617-4.703-1.86-1.2-1.25-1.797-2.847-1.797-4.796V61.077c0-1.852.617-3.426 1.86-4.72 1.25-1.288 2.796-1.937 4.64-1.937 1.945 0 3.54.649 4.781 1.938 1.25 1.293 1.875 2.867 1.875 4.719v4.843c2.406-3.695 5.754-6.812 10.047-9.343 4.29-2.54 8.883-3.813 13.781-3.813zM359.984 53.452c1.938 0 3.523.625 4.766 1.875 1.25 1.25 1.875 2.89 1.875 4.922v60.969c0 7.476-1.594 13.734-4.782 18.766-3.18 5.031-7.496 8.75-12.953 11.156-5.449 2.406-11.59 3.61-18.422 3.61-3.699 0-8.023-.653-12.969-1.954-4.937-1.293-8.101-2.633-9.484-4.015-2.867-1.48-4.297-3.325-4.297-5.532 0-.562.188-1.304.563-2.218 1.007-2.313 2.718-3.47 5.125-3.47 1.195 0 2.488.274 3.875.829 7.394 2.863 13.172 4.297 17.328 4.297 7.382 0 13.039-1.781 16.969-5.344 3.925-3.555 5.89-8.422 5.89-14.609v-7.484c-1.937 3.605-5.195 6.703-9.765 9.297-4.575 2.582-9.403 3.875-14.484 3.875-6.375 0-12.2-1.614-17.47-4.844-5.261-3.239-9.39-7.742-12.39-13.516-3-5.781-4.5-12.27-4.5-19.47 0-7.206 1.5-13.694 4.5-19.468 3-5.77 7.109-10.27 12.328-13.5 5.218-3.239 10.969-4.86 17.25-4.86 5.082 0 9.816 1.157 14.203 3.47 4.394 2.304 7.835 5.116 10.328 8.437v-4.422c0-1.946.597-3.567 1.796-4.86 1.207-1.289 2.782-1.937 4.72-1.937zm-29.234 62.766c4.52 0 8.535-1.082 12.047-3.25 3.508-2.164 6.254-5.21 8.234-9.14 1.989-3.926 2.985-8.337 2.985-13.235 0-4.894-.996-9.28-2.985-13.156-1.98-3.882-4.726-6.937-8.234-9.156-3.512-2.219-7.527-3.328-12.047-3.328-4.437 0-8.414 1.11-11.922 3.328-3.512 2.219-6.262 5.293-8.25 9.219-1.98 3.93-2.969 8.293-2.969 13.094 0 4.805.988 9.168 2.969 13.094 1.988 3.93 4.738 7 8.25 9.219 3.508 2.21 7.484 3.312 11.922 3.312z" />
  </g>
  <g transform="translate(-5.087 -112.11)" clip-path="url(#prefix__a)">
    <path
      d="M187.47 112.11c-11.703 0-21.199 9.387-21.199 20.98 0 5.79 2.371 11.035 6.21 14.832l14.989 14.539 14.992-14.543c3.84-3.793 6.21-9.04 6.207-14.832 0-11.578-9.488-20.977-21.2-20.977zm7.422 20.98v8.39h-5.3v-6.292h-4.243v6.293h-5.297v-8.391h-3.184l10.602-10.488 10.602 10.488z"
      fill="#2cccc3" />
  </g>
</svg>